# xmcd
#
# Track frame offsets: 
#        150
#        15252
#        33122
#        52655
#        74247
#        99787
#        103202
#        127842
#        149730
#        166195
#        189017
#        191957
#
# Disc length: 3008 seconds
#
# Revision: 27
# Processed by: cddbd v1.5.2PL0 Copyright (c) Steve Scherf et al.
# Submitted via: ExactAudioCopy v0.95b3
#
DISCID=980bbe0c
DTITLE=oasis - (What's The Story) Morning Glory?
DYEAR=1995
DGENRE=Rock
TTITLE0=Hello
TTITLE1=Roll With It
TTITLE2=Wonderwall
TTITLE3=Don't Look Back In Anger
TTITLE4=Hey Now!
TTITLE5=[Untitled Track1]
TTITLE6=Some Might Say
TTITLE7=Cast No Shadow
TTITLE8=She's Electric
TTITLE9=Morning Glory
TTITLE10=[Untitled Track2]
TTITLE11=Champagne Supernova
EXTD=YEAR: 1995
EXTT0=
EXTT1=
EXTT2=
EXTT3=
EXTT4=
EXTT5=
EXTT6=
EXTT7=
EXTT8=
EXTT9=
EXTT10=
EXTT11=
PLAYORDER=
